<svg width="25" height="25" viewBox="0 0 25 25" fill="none" xmlns="http://www.w3.org/2000/svg">
<g clip-path="url(#clip0_690_303)">
<path fill-rule="evenodd" clip-rule="evenodd" d="M8.02532 9.89446C8.41584 9.50393 9.049 9.50393 9.43953 9.89446L11.439 11.8939C11.8306 11.7065 12.2693 11.6016 12.7324 11.6016C14.3893 11.6016 15.7324 12.9447 15.7324 14.6016C15.7324 16.2584 14.3893 17.6016 12.7324 17.6016C11.0756 17.6016 9.73242 16.2584 9.73242 14.6016C9.73242 14.1384 9.83737 13.6998 10.0248 13.3081L8.02532 11.3087C7.63479 10.9181 7.63479 10.285 8.02532 9.89446ZM12.7324 13.6016C12.1801 13.6016 11.7324 14.0493 11.7324 14.6016C11.7324 15.1538 12.1801 15.6016 12.7324 15.6016C13.2847 15.6016 13.7324 15.1538 13.7324 14.6016C13.7324 14.0493 13.2847 13.6016 12.7324 13.6016Z" fill="#2D3648"/>
<path fill-rule="evenodd" clip-rule="evenodd" d="M0.732422 14.6016C0.732422 7.97428 6.10514 2.60156 12.7324 2.60156C19.3597 2.60156 24.7324 7.97428 24.7324 14.6016C24.7324 17.5015 23.7019 20.1639 21.9884 22.2384L21.6885 22.6016H3.77639L3.47642 22.2384C1.76292 20.1639 0.732422 17.5015 0.732422 14.6016ZM11.7324 4.65094V5.60156C11.7324 6.15385 12.1801 6.60156 12.7324 6.60156C13.2847 6.60156 13.7324 6.15385 13.7324 5.60156V4.65094C15.744 4.85068 17.5803 5.64659 19.0621 6.85947C19.0496 6.87076 19.0373 6.88242 19.0253 6.89446L18.0253 7.89446C17.6348 8.28498 17.6348 8.91815 18.0253 9.30867C18.4158 9.69919 19.049 9.69919 19.4395 9.30867L20.4395 8.30867C20.4516 8.29664 20.4632 8.28437 20.4745 8.2719C21.6874 9.75365 22.4833 11.5899 22.683 13.6016H21.7324C21.1801 13.6016 20.7324 14.0493 20.7324 14.6016C20.7324 15.1538 21.1801 15.6016 21.7324 15.6016H22.6831C22.498 17.4669 21.8004 19.1805 20.7326 20.6016H4.73224C3.66444 19.1805 2.96689 17.4669 2.78177 15.6016H3.73242C4.28471 15.6016 4.73242 15.1538 4.73242 14.6016C4.73242 14.0493 4.28471 13.6016 3.73242 13.6016H2.7818C3.25089 8.87725 7.00811 5.12003 11.7324 4.65094Z" fill="#2D3648"/>
</g>
<defs>
<clipPath id="clip0_690_303">
<rect width="24" height="24" fill="white" transform="translate(0.732422 0.601562)"/>
</clipPath>
</defs>
</svg>
